# xmcd CD database file
#
# Track frame offsets:
#	150
#	15822
#	29496
#	41385
#	64333
#	80867
#	93918
#	109518
#	125070
#	145650
#
# Disc length: 2146 seconds
#
# Revision: 0
# Processed by: cddbd v1.5.2PL0 Copyright (c) Steve Scherf et al.
# Submitted via: CDex 1.70beta2
#
DISCID=7c08600a
DTITLE=Appaloosa - Stále stejné sny
DYEAR=1900
DGENRE=Country
TTITLE0=Rocky top
TTITLE1=První jarní vítr
TTITLE2=Leť
TTITLE3=Colorado, dobré ráno
TTITLE4=Loď
TTITLE5=Já se ptám
TTITLE6=Stěna trollů
TTITLE7=No tak Joe
TTITLE8=Severní stěna
TTITLE9=Staří známí
EXTD=
EXTT0=
EXTT1=
EXTT2=
EXTT3=
EXTT4=
EXTT5=
EXTT6=
EXTT7=
EXTT8=
EXTT9=
PLAYORDER=
